<svg width="11" height="18" viewBox="0 0 11 18" fill="none" xmlns="http://www.w3.org/2000/svg">
<path d="M10.2225 8.33666L2.65729 0.771583C2.48232 0.596471 2.24874 0.5 1.99969 0.5C1.75063 0.5 1.51706 0.596471 1.34208 0.771583L0.784957 1.32857C0.422431 1.69151 0.422431 2.28139 0.784957 2.64378L7.13765 8.99648L0.777908 15.3562C0.602934 15.5313 0.506325 15.7648 0.506325 16.0137C0.506325 16.2629 0.602934 16.4963 0.777908 16.6716L1.33503 17.2284C1.51015 17.4035 1.74358 17.5 1.99264 17.5C2.24169 17.5 2.47527 17.4035 2.65024 17.2284L10.2225 9.65643C10.3979 9.48076 10.4942 9.24622 10.4937 8.99689C10.4942 8.74659 10.3979 8.51219 10.2225 8.33666Z" fill="white"/>
</svg>
