<svg width="32" height="30" viewBox="0 0 32 30" fill="none" xmlns="http://www.w3.org/2000/svg">
<path d="M2.35943 26.2921H29.1341C30.1598 26.2921 30.9913 27.1222 30.9913 28.1461C30.9913 29.17 30.1598 30 29.1341 30H2.35943C1.33374 30 0.502197 29.17 0.502197 28.1461C0.502197 27.1222 1.33374 26.2921 2.35943 26.2921Z" fill="#CE7419"/>
<path d="M2.35962 8.72439L5.71719 12.5248L4.97033 16.1533L9.72247 16.5763L12.9148 13.9061L10.932 9.24653L15.7502 3.63516L20.5685 9.24653L18.5857 13.9061L21.778 16.5763L26.5301 16.1533L25.7833 12.5248L29.1408 8.72439V26.2921H2.35962V8.72439Z" fill="#FCBA29"/>
<path d="M15.7501 3.63516L20.5684 9.24653L18.5855 13.9061L21.7779 16.5763L26.53 16.1533L25.7832 12.5248L29.1407 8.72439V26.2921H15.7501V3.63516Z" fill="#E99A23"/>
<path d="M1.52677 8.89625C2.36998 8.89625 3.05354 8.21269 3.05354 7.36948C3.05354 6.52627 2.36998 5.84271 1.52677 5.84271C0.683557 5.84271 0 6.52627 0 7.36948C0 8.21269 0.683557 8.89625 1.52677 8.89625Z" fill="#FCBA29"/>
<path d="M29.9737 8.89625C30.8169 8.89625 31.5004 8.21269 31.5004 7.36948C31.5004 6.52627 30.8169 5.84271 29.9737 5.84271C29.1305 5.84271 28.4469 6.52627 28.4469 7.36948C28.4469 8.21269 29.1305 8.89625 29.9737 8.89625Z" fill="#FCBA29"/>
<path d="M15.7501 3.63516C16.7539 3.63516 17.5677 2.8214 17.5677 1.81758C17.5677 0.813759 16.7539 0 15.7501 0C14.7463 0 13.9325 0.813759 13.9325 1.81758C13.9325 2.8214 14.7463 3.63516 15.7501 3.63516Z" fill="#FCBA29"/>
<path d="M15.7501 15.618L17.0587 17.3629L18.374 19.1077L17.0587 20.8526L15.7501 22.5975L14.4414 20.8526L13.1262 19.1077L14.4414 17.3629L15.7501 15.618ZM24.177 18.8301L25.1156 20.0727L26.0475 21.3219L25.1156 22.5644L24.177 23.8136L23.2385 22.5644L22.3066 21.3219L23.2385 20.0727L24.177 18.8301ZM7.32311 18.8301L8.26164 20.0727L9.19357 21.3219L8.26164 22.5644L7.32311 23.8136L6.38458 22.5644L5.44604 21.3219L6.38458 20.0727L7.32311 18.8301Z" fill="#CE7419"/>
</svg>
