<svg width="20" height="20" viewBox="0 0 20 20" fill="none" xmlns="http://www.w3.org/2000/svg">
<path d="M10 20C15.5228 20 20 15.5228 20 10C20 4.47715 15.5228 0 10 0C4.47715 0 0 4.47715 0 10C0 15.5228 4.47715 20 10 20Z" fill="#20BF55"/>
<path d="M9.23998 12.77C8.97561 12.7742 8.72033 12.6735 8.52998 12.49L6.24998 10.25C6.06035 10.063 5.95277 9.80838 5.95089 9.54207C5.94902 9.27577 6.05301 9.01963 6.23998 8.83C6.42696 8.64037 6.68161 8.53279 6.94791 8.53091C7.21421 8.52904 7.47035 8.63302 7.65998 8.82L9.23998 10.37L13.34 6.37C13.4339 6.27742 13.5451 6.20424 13.6673 6.15464C13.7894 6.10504 13.9202 6.07998 14.0521 6.08091C14.1839 6.08184 14.3143 6.10873 14.4358 6.16005C14.5572 6.21137 14.6674 6.28611 14.76 6.38C14.8526 6.4739 14.9257 6.58511 14.9754 6.70729C15.025 6.82946 15.05 6.96022 15.0491 7.09207C15.0481 7.22393 15.0213 7.35432 14.9699 7.47579C14.9186 7.59725 14.8439 7.70742 14.75 7.8L9.93998 12.53C9.74592 12.6966 9.49542 12.7825 9.23998 12.77Z" fill="#EDEBEA"/>
</svg>
