<svg width="20" height="20" viewBox="0 0 20 20" fill="none" xmlns="http://www.w3.org/2000/svg">
<path d="M10 20C15.5228 20 20 15.5228 20 10C20 4.47715 15.5228 0 10 0C4.47715 0 0 4.47715 0 10C0 15.5228 4.47715 20 10 20Z" fill="#E63946"/>
<path d="M11.41 10L13.71 7.71C13.8983 7.5217 14.0041 7.2663 14.0041 7C14.0041 6.7337 13.8983 6.47831 13.71 6.29C13.5217 6.1017 13.2663 5.99591 13 5.99591C12.7337 5.99591 12.4783 6.1017 12.29 6.29L10 8.59L7.71 6.29C7.5217 6.1017 7.2663 5.99591 7 5.99591C6.7337 5.99591 6.4783 6.1017 6.29 6.29C6.1017 6.47831 5.99591 6.7337 5.99591 7C5.99591 7.2663 6.1017 7.5217 6.29 7.71L8.59 10L6.29 12.29C6.19627 12.383 6.12188 12.4936 6.07111 12.6154C6.02034 12.7373 5.9942 12.868 5.9942 13C5.9942 13.132 6.02034 13.2627 6.07111 13.3846C6.12188 13.5064 6.19627 13.617 6.29 13.71C6.38296 13.8037 6.49356 13.8781 6.61542 13.9289C6.73728 13.9797 6.86799 14.0058 7 14.0058C7.13201 14.0058 7.26272 13.9797 7.38458 13.9289C7.50644 13.8781 7.61704 13.8037 7.71 13.71L10 11.41L12.29 13.71C12.383 13.8037 12.4936 13.8781 12.6154 13.9289C12.7373 13.9797 12.868 14.0058 13 14.0058C13.132 14.0058 13.2627 13.9797 13.3846 13.9289C13.5064 13.8781 13.617 13.8037 13.71 13.71C13.8037 13.617 13.8781 13.5064 13.9289 13.3846C13.9797 13.2627 14.0058 13.132 14.0058 13C14.0058 12.868 13.9797 12.7373 13.9289 12.6154C13.8781 12.4936 13.8037 12.383 13.71 12.29L11.41 10Z" fill="#EDEBEA"/>
</svg>
