<svg width="33" height="30" viewBox="0 0 33 30" fill="none" xmlns="http://www.w3.org/2000/svg">
<path d="M20.1583 0H12.5392C5.71222 0 0 5.56951 0 12.4149C0 15.7824 1.54086 19.0158 3.96766 21.355V30L9.50319 24.4491C10.4977 24.7019 11.5158 24.8299 12.5392 24.8299H20.1583C26.9847 24.8299 32.7652 19.2604 32.7652 12.4149C32.7652 5.56951 26.9847 0 20.1583 0Z" fill="#FFD400"/>
<path d="M32.7652 12.4149C32.7652 19.2604 26.9847 24.8299 20.1583 24.8299H16.3186V0H20.1583C26.9847 0 32.7652 5.56951 32.7652 12.4149Z" fill="#FDBF00"/>
<path d="M15.3586 4.99158H17.2785V14.5268H15.3586V4.99158ZM15.3586 16.4466H17.2785V18.3664H15.3586V16.4466Z" fill="#60508E"/>
<path d="M16.3186 16.4466H17.2785V18.3664H16.3186V16.4466ZM16.3186 4.99158H17.2785V14.5268H16.3186V4.99158Z" fill="#2D0057"/>
</svg>
