<svg width="48" height="30" viewBox="0 0 48 30" fill="none" xmlns="http://www.w3.org/2000/svg">
<path d="M36.8695 23.0764L34.8939 1.80457C34.8481 1.31114 34.6198 0.852593 34.2535 0.518783C33.8873 0.184974 33.4096 -3.86617e-05 32.914 6.05998e-09H14.3617C13.8662 -3.86617e-05 13.3885 0.184974 13.0222 0.518783C12.656 0.852593 12.4276 1.31114 12.3818 1.80457L10.4062 23.0764H36.8695Z" fill="#FF4343"/>
<path d="M23.6379 16.7246C26.5024 16.7246 28.8246 14.4025 28.8246 11.538C28.8246 8.67348 26.5024 6.35135 23.6379 6.35135C20.7734 6.35135 18.4513 8.67348 18.4513 11.538C18.4513 14.4025 20.7734 16.7246 23.6379 16.7246Z" fill="#F72C2C"/>
<path d="M7.84265 23.0764H39.4333V30H7.84265V23.0764Z" fill="#575F64"/>
<path d="M46.5799 12.2339H40.3697C40.1851 12.2339 40.0081 12.1606 39.8776 12.0301C39.7471 11.8996 39.6738 11.7226 39.6738 11.538C39.6738 11.3535 39.7471 11.1764 39.8776 11.0459C40.0081 10.9154 40.1851 10.8421 40.3697 10.8421H46.5799C46.7645 10.8421 46.9415 10.9154 47.072 11.0459C47.2025 11.1764 47.2758 11.3535 47.2758 11.538C47.2758 11.7226 47.2025 11.8996 47.072 12.0301C46.9415 12.1606 46.7645 12.2339 46.5799 12.2339ZM43.7776 19.5094C43.697 19.51 43.617 19.4965 43.541 19.4697L39.1381 17.879C38.9645 17.8163 38.823 17.6873 38.7446 17.5202C38.6661 17.3531 38.6573 17.1617 38.72 16.9881C38.7827 16.8145 38.9118 16.6729 39.0789 16.5945C39.246 16.5161 39.4374 16.5073 39.611 16.57L44.0142 18.1606C44.1694 18.2154 44.3001 18.3235 44.3832 18.4656C44.4662 18.6076 44.4962 18.7746 44.4679 18.9367C44.4395 19.0988 44.3546 19.2456 44.2282 19.3511C44.1018 19.4565 43.9422 19.5138 43.7776 19.5126V19.5094ZM6.9061 12.2339H0.695899C0.511335 12.2339 0.33433 12.1606 0.203824 12.0301C0.0733178 11.8996 0 11.7226 0 11.538C0 11.3535 0.0733178 11.1764 0.203824 11.0459C0.33433 10.9154 0.511335 10.8421 0.695899 10.8421H6.9061C7.09066 10.8421 7.26767 10.9154 7.39817 11.0459C7.52868 11.1764 7.602 11.3535 7.602 11.538C7.602 11.7226 7.52868 11.8996 7.39817 12.0301C7.26767 12.1606 7.09066 12.2339 6.9061 12.2339ZM7.90143 6.54981C7.82086 6.55037 7.7408 6.53691 7.66483 6.51005L3.26158 4.91942C3.17562 4.88835 3.09663 4.84065 3.02911 4.77905C2.96158 4.71745 2.90686 4.64316 2.86805 4.56041C2.82924 4.47766 2.80711 4.38807 2.80292 4.29677C2.79873 4.20547 2.81257 4.11423 2.84364 4.02828C2.87471 3.94232 2.92241 3.86333 2.98401 3.7958C3.04561 3.72828 3.11991 3.67355 3.20266 3.63474C3.28541 3.59593 3.37499 3.5738 3.4663 3.56962C3.5576 3.56543 3.64883 3.57927 3.73479 3.61034L8.13764 5.20096C8.29232 5.2562 8.42248 5.36433 8.50515 5.50625C8.58781 5.64817 8.61764 5.81475 8.58938 5.97653C8.56111 6.13832 8.47657 6.28491 8.35068 6.3904C8.2248 6.49589 8.06567 6.55348 7.90143 6.553V6.54981ZM3.49818 19.5094C3.3336 19.5106 3.17395 19.4533 3.04758 19.3479C2.92121 19.2425 2.83629 19.0956 2.80792 18.9335C2.77955 18.7714 2.80956 18.6045 2.89261 18.4624C2.97567 18.3203 3.1064 18.2122 3.26158 18.1574L7.66483 16.5668C7.75078 16.5357 7.84201 16.5219 7.93331 16.5261C8.0246 16.5303 8.11417 16.5525 8.1969 16.5913C8.27963 16.6302 8.35391 16.6849 8.41548 16.7524C8.47706 16.82 8.52473 16.899 8.55578 16.9849C8.58682 17.0709 8.60063 17.1621 8.59642 17.2534C8.59221 17.3447 8.57006 17.4343 8.53123 17.517C8.4924 17.5997 8.43766 17.674 8.37013 17.7356C8.3026 17.7972 8.2236 17.8448 8.13764 17.8759L3.73479 19.4665C3.65901 19.4944 3.57895 19.5089 3.49818 19.5094ZM39.3744 6.54981C39.2101 6.5503 39.051 6.4927 38.9251 6.38722C38.7992 6.28173 38.7147 6.13514 38.6864 5.97335C38.6581 5.81156 38.688 5.64499 38.7706 5.50307C38.8533 5.36115 38.9835 5.25302 39.1381 5.19778L43.541 3.60716C43.7146 3.5444 43.906 3.55318 44.0731 3.63156C44.2403 3.70994 44.3694 3.8515 44.4321 4.02509C44.4949 4.19869 44.4861 4.3901 44.4077 4.55723C44.3294 4.72435 44.1878 4.85349 44.0142 4.91624L39.611 6.50687C39.5352 6.53484 39.4551 6.54938 39.3744 6.54981Z" fill="#FF4343"/>
</svg>
